# xmcd
#
# Track frame offsets:
#	150
#	21600
#	43240
#	64347
#	86130
#	103442
#	123387
#	146940
#	167200
#
# Disc length: 2486 seconds
#
# Revision: 3
# Processed by: cddbd v1.5.2PL0 Copyright (c) Steve Scherf et al.
# Submitted via: EasyCDDAExtractor 11.1.0.1
#
DISCID=9309b409
DTITLE=Robert Belfour - What's Wrong With You
DYEAR=2000
DGENRE=Blues
TTITLE0=My Baby's Gone
TTITLE1=Black Mattie
TTITLE2=What's Wrong With You
TTITLE3=Done Got Old
TTITLE4=Treat Me Right
TTITLE5=Walkin' The Floor
TTITLE6=Norene
TTITLE7=Holding My Pillow
TTITLE8=Bad Luck
EXTD=All songs by Robert Belfour, except "Done Got Old" and "Black Mattie" by 
EXTD=Junior Kimbrough.\nRobert Belfour: vocals, guitar\nBryan Barry: drums (tr
EXTD=acks 1,3]\nRecorded by Bruce Watson at the Money Shot, Water Valley US-MS
EXTD=\nProduced by Matthew Johnson and Bruce Watson.\nCD: Epitaph/Fat Possum 80
EXTD=336 (2000-05-23), UPC 045778033621.
EXTT0=(Robert Belfour)
EXTT1=(Junior Kimbrough)
EXTT2=(Robert Belfour)
EXTT3=(Junior Kimbrough)
EXTT4=(Robert Belfour)
EXTT5=(Robert Belfour)
EXTT6=(Robert Belfour)
EXTT7=(Robert Belfour)
EXTT8=(Robert Belfour)
PLAYORDER=
